<svg width="93" height="24" viewBox="0 0 93 24" fill="none" xmlns="http://www.w3.org/2000/svg">
<path d="M3.01001 11.22V15.71C3.01001 20.2 4.81001 22 9.30001 22H14.69C19.18 22 20.98 20.2 20.98 15.71V11.22" stroke="#7A797D" stroke-width="1.5" stroke-linecap="round" stroke-linejoin="round"/>
<path d="M12 12C13.83 12 15.18 10.51 15 8.68L14.34 2H9.66999L8.99999 8.68C8.81999 10.51 10.17 12 12 12Z" stroke="#7A797D" stroke-width="1.5" stroke-linecap="round" stroke-linejoin="round"/>
<path d="M18.31 12C20.33 12 21.81 10.36 21.61 8.35L21.33 5.6C20.97 3 19.97 2 17.35 2H14.3L15 9.01C15.17 10.66 16.66 12 18.31 12Z" stroke="#7A797D" stroke-width="1.5" stroke-linecap="round" stroke-linejoin="round"/>
<path d="M5.64 12C7.29 12 8.78 10.66 8.94 9.01L9.16 6.8L9.64001 2H6.59C3.97001 2 2.97 3 2.61 5.6L2.34 8.35C2.14 10.36 3.62 12 5.64 12Z" stroke="#7A797D" stroke-width="1.5" stroke-linecap="round" stroke-linejoin="round"/>
<path d="M12 17C10.33 17 9.5 17.83 9.5 19.5V22H14.5V19.5C14.5 17.83 13.67 17 12 17Z" stroke="#7A797D" stroke-width="1.5" stroke-linecap="round" stroke-linejoin="round"/>
<path d="M41.136 17.5V6.3H43.136L46.928 13.756L50.704 6.3H52.704V17.5H51.008V9.228L47.584 15.9H46.272L42.832 9.244V17.5H41.136ZM57.6038 17.692C56.9318 17.692 56.3771 17.58 55.9398 17.356C55.5024 17.132 55.1771 16.8387 54.9638 16.476C54.7504 16.1027 54.6438 15.6973 54.6438 15.26C54.6438 14.492 54.9424 13.884 55.5398 13.436C56.1371 12.988 56.9904 12.764 58.0998 12.764H60.1798V12.62C60.1798 12.0013 60.0091 11.5373 59.6678 11.228C59.3371 10.9187 58.9051 10.764 58.3718 10.764C57.9024 10.764 57.4918 10.8813 57.1398 11.116C56.7984 11.34 56.5904 11.676 56.5158 12.124H54.8198C54.8731 11.548 55.0651 11.0573 55.3958 10.652C55.7371 10.236 56.1638 9.92133 56.6758 9.708C57.1984 9.484 57.7691 9.372 58.3878 9.372C59.4971 9.372 60.3558 9.66533 60.9638 10.252C61.5718 10.828 61.8758 11.6173 61.8758 12.62V17.5H60.4038L60.2598 16.14C60.0358 16.5773 59.7104 16.9453 59.2838 17.244C58.8571 17.5427 58.2971 17.692 57.6038 17.692ZM57.9398 16.316C58.3984 16.316 58.7824 16.2093 59.0918 15.996C59.4118 15.772 59.6571 15.4787 59.8278 15.116C60.0091 14.7533 60.1211 14.3533 60.1638 13.916H58.2758C57.6038 13.916 57.1238 14.0333 56.8358 14.268C56.5584 14.5027 56.4198 14.796 56.4198 15.148C56.4198 15.5107 56.5531 15.7987 56.8198 16.012C57.0971 16.2147 57.4704 16.316 57.9398 16.316ZM63.8533 17.5V9.564H65.3733L65.5173 11.068C65.7946 10.5453 66.1786 10.1347 66.6693 9.836C67.1706 9.52667 67.7733 9.372 68.4773 9.372V11.148H68.0133C67.5439 11.148 67.1226 11.228 66.7493 11.388C66.3866 11.5373 66.0933 11.7987 65.8693 12.172C65.6559 12.5347 65.5493 13.0413 65.5493 13.692V17.5H63.8533ZM69.9314 17.5V5.98H71.6274V12.844L74.6674 9.564H76.6994L73.3234 13.164L77.1954 17.5H75.0514L71.6274 13.436V17.5H69.9314ZM81.6121 17.692C80.8335 17.692 80.1401 17.5213 79.5321 17.18C78.9348 16.828 78.4655 16.3427 78.1241 15.724C77.7828 15.1053 77.6121 14.3853 77.6121 13.564C77.6121 12.732 77.7775 12.0013 78.1081 11.372C78.4495 10.7427 78.9188 10.252 79.5161 9.9C80.1241 9.548 80.8281 9.372 81.6281 9.372C82.4068 9.372 83.0841 9.548 83.6601 9.9C84.2361 10.2413 84.6841 10.7 85.0041 11.276C85.3241 11.852 85.4841 12.4867 85.4841 13.18C85.4841 13.2867 85.4788 13.404 85.4681 13.532C85.4681 13.6493 85.4628 13.7827 85.4521 13.932H79.2761C79.3295 14.7 79.5801 15.2867 80.0281 15.692C80.4868 16.0867 81.0148 16.284 81.6121 16.284C82.0921 16.284 82.4921 16.1773 82.8121 15.964C83.1428 15.74 83.3881 15.4413 83.5481 15.068H85.2441C85.0308 15.8147 84.6041 16.4387 83.9641 16.94C83.3348 17.4413 82.5508 17.692 81.6121 17.692ZM81.6121 10.764C81.0468 10.764 80.5455 10.9347 80.1081 11.276C79.6708 11.6067 79.4041 12.108 79.3081 12.78H83.7881C83.7561 12.1613 83.5375 11.6707 83.1321 11.308C82.7268 10.9453 82.2201 10.764 81.6121 10.764ZM90.3688 17.5C89.5901 17.5 88.9714 17.3133 88.5128 16.94C88.0541 16.556 87.8248 15.8787 87.8248 14.908V10.988H86.4648V9.564H87.8248L88.0328 7.548H89.5208V9.564H91.7608V10.988H89.5208V14.908C89.5208 15.3453 89.6114 15.6493 89.7928 15.82C89.9848 15.98 90.3101 16.06 90.7688 16.06H91.6808V17.5H90.3688Z" fill="#7A797D"/>
</svg>
